PathFileType	4	(X/Y/Z)	./resultDataOpenSim/trcMotMarkerGrf/sub09/qtm-02-06.trc
DataRate	CameraRate	NumFrames	NumMarkers	Units	OrigDataRate	OrigDataStartFrame	OrigNumFrames
250.000000	250.000000	7	24	m	250.000000	1	485
Frame#	Time	L.Toe.Tip			R.Toe.Tip			L.Ankle.Lat			R.Ankle.Lat			L.Ankle.Med			R.Ankle.Med			L.Heel			R.Heel			L.Knee.Lat			R.Knee.Lat			L.Knee.Med			R.Knee.Med			L.Thigh.Upper			R.Thigh.Upper			L.ASIS			R.ASIS			V.Sacral			L.Acromium			R.Acromium			C7			L.Elbow			R.Elbow			L.Wrist.Lat			R.Wrist.Lat
		X1	Y1	Z1	X2	Y2	Z2	X3	Y3	Z3	X4	Y4	Z4	X5	Y5	Z5	X6	Y6	Z6	X7	Y7	Z7	X8	Y8	Z8	X9	Y9	Z9	X10	Y10	Z10	X11	Y11	Z11	X12	Y12	Z12	X13	Y13	Z13	X14	Y14	Z14	X15	Y15	Z15	X16	Y16	Z16	X17	Y17	Z17	X18	Y18	Z18	X19	Y19	Z19	X20	Y20	Z20	X21	Y21	Z21	X22	Y22	Z22	X23	Y23	Z23	X24	Y24	Z24

1	0	-1.5619909	0.037697315	-0.025865461	-1.0743349	0.076472663	0.11956745	-1.7112608	0.081545284	-0.049785923	-1.2237311	0.073662504	0.1455593	-1.6784823	0.098396515	0.04190757	-1.2120912	0.11105965	0.054278087	NaN	NaN	NaN	-1.2798001	0.039519704	0.089230669	-1.5791481	0.47671488	-0.1115241	-1.2335934	0.53435687	0.18318894	-1.576567	0.4772713	0.01535538	-1.2382468	0.51355888	0.057702828	-1.4672309	0.8839642	-0.15551579	-1.4374554	0.88594503	0.21583564	-1.3619693	0.95532732	-0.10203268	-1.3568936	0.96532644	0.13845662	-1.516827	1.0285907	0.029813938	-1.3139148	1.4088621	-0.13239538	-1.3455921	1.4151793	0.19473906	-1.3890059	1.469753	0.027201332	-1.4311963	1.0545369	-0.21864008	NaN	NaN	NaN	-1.196643	0.91289113	-0.19566665	-1.4321113	0.84298379	0.29340018
2	0.004	-1.5632793	0.037158355	-0.024510124	-1.0544045	0.079010087	0.12033454	-1.7110296	0.082401188	-0.049599766	-1.2043394	0.072748706	0.14585957	-1.6783263	0.098953091	0.042017271	-1.1928517	0.11078384	0.054866978	NaN	NaN	NaN	-1.2590631	0.037729919	0.089416861	-1.5768217	0.47682184	-0.11157883	-1.2272289	0.53314136	0.18387311	-1.5743057	0.4773038	0.015437524	-1.230774	0.51228832	0.058365083	-1.4615453	0.8828085	-0.1551714	-1.4311182	0.88440911	0.2160524	-1.3557706	0.95398348	-0.10196694	-1.3504918	0.96384025	0.13863096	-1.510437	1.0269031	0.03002169	-1.3079197	1.4075285	-0.13199553	-1.3399845	1.4136681	0.19522134	-1.3834517	1.4684369	0.027392207	-1.4237149	1.0517623	-0.2190271	NaN	NaN	NaN	-1.1873036	0.91358892	-0.19479271	-1.4265641	0.84129532	0.29392837
3	0.008	-1.5640906	0.036833731	-0.023723504	-1.0346587	0.081739746	0.12110216	-1.7107869	0.083232299	-0.049445832	-1.1849755	0.072017704	0.1462294	-1.6780569	0.099534621	0.042032348	-1.1738047	0.11064229	0.055463616	NaN	NaN	NaN	-1.2388005	0.036230603	0.089142141	-1.574251	0.47691614	-0.11162161	-1.220884	0.53183345	0.18460012	-1.5719607	0.47730216	0.015521285	-1.2233234	0.51095341	0.05897543	-1.4558312	0.88162653	-0.15477058	-1.424813	0.88284049	0.21627991	-1.3495685	0.95259776	-0.10190081	-1.3440476	0.96235171	0.13879104	-1.5041002	1.025105	0.030152164	-1.3018992	1.4061983	-0.13158012	-1.3343425	1.4121274	0.19569229	-1.3779114	1.467227	0.028031081	-1.4159098	1.0492788	-0.21900804	NaN	NaN	NaN	-1.1779922	0.91426574	-0.19390764	-1.4209425	0.83956994	0.29448092
4	0.012	-1.564352	0.036791103	-0.023514944	-1.0151833	0.084796601	0.1218358	-1.710506	0.084053486	-0.049339245	-1.1657212	0.07157906	0.14668175	-1.6776191	0.10012938	0.041949599	-1.1550938	0.11070267	0.056071138	NaN	NaN	NaN	-1.2190587	0.03508004	0.088494704	-1.5713588	0.47698148	-0.11165861	-1.2146201	0.53037078	0.18535601	-1.5694402	0.47725329	0.015596785	-1.2159008	0.50951994	0.059516326	-1.4500578	0.88041053	-0.1543334	-1.4185086	0.88121429	0.21652584	-1.3433621	0.95116502	-0.10182633	-1.3375428	0.96084861	0.13893322	-1.4978016	1.0231954	0.030243837	-1.2958341	1.4048634	-0.13115304	-1.3286442	1.4105404	0.1961586	-1.3723168	1.4661094	0.029199259	-1.4078193	1.0471318	-0.21866038	NaN	NaN	NaN	-1.1687211	0.91489358	-0.19301151	-1.4151763	0.83779728	0.29506565
5	0.016	-1.5642925	0.036932891	-0.023553202	-0.99602475	0.088245336	0.12248488	-1.7101096	0.084922405	-0.049273761	-1.1467141	0.071459674	0.14719173	-1.6772286	0.10065523	0.041902105	-1.1368277	0.11096839	0.056676741	NaN	NaN	NaN	-1.1993727	0.034033989	0.088334095	-1.5682137	0.47699703	-0.11170897	-1.2085046	0.52874789	0.18606976	-1.5666336	0.4771598	0.015640975	-1.2085195	0.50799305	0.059999996	-1.4442016	0.87916999	-0.15392215	-1.412156	0.87953217	0.21679159	-1.337168	0.94971065	-0.10174013	-1.3310103	0.95932773	0.13906687	-1.491499	1.0212591	0.030407355	-1.2897364	1.4035121	-0.130719	-1.3228893	1.4089103	0.19663048	-1.3665776	1.4649622	0.030580608	-1.3997068	1.0451614	-0.21828644	NaN	NaN	NaN	-1.1595051	0.91545226	-0.19210962	-1.409252	0.83599201	0.29567293
6	0.02	-1.5641445	0.037093166	-0.023615755	-0.97726071	0.092101976	0.12306359	-1.7095115	0.085881625	-0.049241717	-1.1280576	0.071635359	0.14773942	-1.6774714	0.10095845	0.042169463	-1.1190344	0.11142393	0.057272185	NaN	NaN	NaN	-1.1793738	0.032884773	0.08933431	-1.5648888	0.47695267	-0.11178404	-1.20259	0.527004	0.18663101	-1.5634684	0.47702486	0.015632113	-1.2011818	0.50640033	0.06042918	-1.4382503	0.87791452	-0.15356331	-1.4057188	0.87781238	0.21706848	-1.3309947	0.94825842	-0.10165106	-1.324484	0.9578043	0.13920165	-1.4851703	1.0193521	0.030694317	-1.2836322	1.4021406	-0.13026555	-1.3170824	1.4072512	0.19711067	-1.3606919	1.463689	0.031751939	-1.3917211	1.0432104	-0.21800808	NaN	NaN	NaN	-1.1503564	0.9159504	-0.19120063	-1.4032532	0.83417122	0.2962886
7	0.024	-1.5640185	0.037169105	-0.023658774	-0.95904935	0.096301216	0.12366065	-1.7087412	0.086895441	-0.049269796	-1.1098367	0.072054616	0.14831246	-1.6788015	0.10095269	0.042957598	-1.1017025	0.11205222	0.057869855	NaN	NaN	NaN	-1.1594055	0.031774727	0.091024956	-1.5613972	0.47685075	-0.11188052	-1.1967736	0.52521374	0.18699616	-1.5599335	0.47685458	0.015561218	-1.1938742	0.50477111	0.060782207	-1.4322308	0.87664894	-0.15324225	-1.3991853	0.87606986	0.21734561	-1.3248302	0.946831	-0.10156258	-1.3179601	0.9562963	0.13934104	-1.4788736	1.0174563	0.030981271	-1.2775355	1.40076	-0.12978465	-1.3112287	1.4055795	0.19759629	-1.3547432	1.4622996	0.03250597	-1.3838481	1.0412348	-0.21778197	NaN	NaN	NaN	-1.1412941	0.91641288	-0.19027996	-1.3973021	0.83234383	0.29690417
